<svg width="24" height="24" viewBox="0 0 24 24" fill="none" xmlns="http://www.w3.org/2000/svg">
<g id="Icon" clip-path="url(#clip0_8_716)">
<path id="Vector" d="M18.6054 5.0595C18.3196 3.5095 16.9663 2.33325 15.3333 2.33325C13.6988 2.33325 12.345 3.512 12.0608 5.06409C5.28125 5.70659 -0.0208332 11.4216 1.48299e-07 18.3741C0.00458348 19.8291 1.21167 20.9999 2.66667 20.9999H15.3333C15.7017 20.9999 16 20.7016 16 20.3333C16 19.597 15.4029 18.9999 14.6667 18.9999H11.3546L12.8463 16.9862C13.8521 15.4766 13.2775 13.3078 11.4417 12.5445C10.4463 12.1308 9.29375 12.3508 8.43167 12.9978L7.06667 14.0224C6.7725 14.2437 6.35458 14.1853 6.13292 13.8895C5.91208 13.5945 5.97125 13.1766 6.26583 12.9558L7.715 11.8687C9.25 10.7162 11.3933 10.7178 12.9288 11.8687C13.3817 12.2083 14.84 13.4962 14.6287 15.7524L19.5675 20.9999H23.3333C23.7017 20.9999 24 20.7016 24 20.3333C24 19.597 23.4029 18.9999 22.6667 18.9999H20.4321L16.3271 14.6383L22.7621 11.0278C23.1376 10.8172 23.4502 10.5104 23.6678 10.1389C23.8854 9.76738 24 9.34462 24 8.91409C24 8.02242 23.5117 7.20784 22.73 6.7795C21.04 5.85367 18.6054 5.0595 18.6054 5.0595ZM15.3333 6.66659C14.7808 6.66659 14.3333 6.21867 14.3333 5.66659C14.3333 5.11409 14.7808 4.66659 15.3333 4.66659C15.8854 4.66659 16.3333 5.11409 16.3333 5.66659C16.3333 6.21867 15.8854 6.66659 15.3333 6.66659Z" fill="#27AE60"/>
</g>
<defs>
<clipPath id="clip0_8_716">
<rect width="24" height="24" fill="white"/>
</clipPath>
</defs>
</svg>
